<mxfile host="app.diagrams.net" modified="2022-01-11T09:56:58.696Z" agent="5.0 (Windows NT 10.0; Win64; x64) AppleWebKit/537.36 (KHTML, like Gecko) Chrome/97.0.4692.71 Safari/537.36 Edg/97.0.1072.55" etag="inNQ83j-pSoxPtzXYzJo" version="16.1.4" type="github">
  <diagram id="LE_V5_JLUO7_CXvZMpyt" name="第 1 页">
    <mxGraphModel dx="1038" dy="547" grid="1" gridSize="10" guides="1" tooltips="1" connect="1" arrows="1" fold="1" page="1" pageScale="1" pageWidth="827" pageHeight="1169" math="0" shadow="0">
      <root>
        <mxCell id="0" />
        <mxCell id="1" parent="0" />
        <mxCell id="75FHtrthLpoXdXTBvVlr-1" value="ATS Client" style="swimlane;" vertex="1" parent="1">
          <mxGeometry x="80" y="60" width="695" height="170" as="geometry" />
        </mxCell>
        <mxCell id="75FHtrthLpoXdXTBvVlr-2" value="选择算法" style="swimlane;fontStyle=0;childLayout=stackLayout;horizontal=1;startSize=30;horizontalStack=0;resizeParent=1;resizeParentMax=0;resizeLast=0;collapsible=1;marginBottom=0;" vertex="1" parent="75FHtrthLpoXdXTBvVlr-1">
          <mxGeometry x="525" y="35" width="140" height="120" as="geometry" />
        </mxCell>
        <mxCell id="75FHtrthLpoXdXTBvVlr-3" value="Algorithm 1" style="text;strokeColor=none;fillColor=none;align=left;verticalAlign=middle;spacingLeft=4;spacingRight=4;overflow=hidden;points=[[0,0.5],[1,0.5]];portConstraint=eastwest;rotatable=0;" vertex="1" parent="75FHtrthLpoXdXTBvVlr-2">
          <mxGeometry y="30" width="140" height="30" as="geometry" />
        </mxCell>
        <mxCell id="75FHtrthLpoXdXTBvVlr-4" value="Algorithm 2" style="text;strokeColor=none;fillColor=none;align=left;verticalAlign=middle;spacingLeft=4;spacingRight=4;overflow=hidden;points=[[0,0.5],[1,0.5]];portConstraint=eastwest;rotatable=0;" vertex="1" parent="75FHtrthLpoXdXTBvVlr-2">
          <mxGeometry y="60" width="140" height="30" as="geometry" />
        </mxCell>
        <mxCell id="75FHtrthLpoXdXTBvVlr-5" value="Algorithm 3" style="text;strokeColor=none;fillColor=none;align=left;verticalAlign=middle;spacingLeft=4;spacingRight=4;overflow=hidden;points=[[0,0.5],[1,0.5]];portConstraint=eastwest;rotatable=0;" vertex="1" parent="75FHtrthLpoXdXTBvVlr-2">
          <mxGeometry y="90" width="140" height="30" as="geometry" />
        </mxCell>
        <mxCell id="75FHtrthLpoXdXTBvVlr-7" value="算法接口" style="shape=process;whiteSpace=wrap;html=1;backgroundOutline=1;" vertex="1" parent="75FHtrthLpoXdXTBvVlr-1">
          <mxGeometry x="285" y="60" width="120" height="60" as="geometry" />
        </mxCell>
        <mxCell id="75FHtrthLpoXdXTBvVlr-26" value="" style="sketch=0;pointerEvents=1;shadow=0;dashed=0;html=1;strokeColor=none;fillColor=#505050;labelPosition=center;verticalLabelPosition=bottom;verticalAlign=top;outlineConnect=0;align=center;shape=mxgraph.office.concepts.lab;" vertex="1" parent="75FHtrthLpoXdXTBvVlr-1">
          <mxGeometry x="60" y="69" width="60" height="55" as="geometry" />
        </mxCell>
        <mxCell id="75FHtrthLpoXdXTBvVlr-21" style="edgeStyle=orthogonalEdgeStyle;rounded=0;orthogonalLoop=1;jettySize=auto;html=1;exitX=1;exitY=0.5;exitDx=0;exitDy=0;" edge="1" parent="1" source="75FHtrthLpoXdXTBvVlr-8" target="75FHtrthLpoXdXTBvVlr-15">
          <mxGeometry relative="1" as="geometry">
            <mxPoint x="590" y="360" as="targetPoint" />
            <Array as="points">
              <mxPoint x="550" y="289" />
              <mxPoint x="550" y="360" />
            </Array>
          </mxGeometry>
        </mxCell>
        <mxCell id="75FHtrthLpoXdXTBvVlr-56" style="edgeStyle=orthogonalEdgeStyle;rounded=0;orthogonalLoop=1;jettySize=auto;html=1;exitX=0.5;exitY=1;exitDx=0;exitDy=0;entryX=0.875;entryY=0.5;entryDx=0;entryDy=0;entryPerimeter=0;fillColor=#0050ef;strokeColor=#001DBC;" edge="1" parent="1" source="75FHtrthLpoXdXTBvVlr-8" target="75FHtrthLpoXdXTBvVlr-29">
          <mxGeometry relative="1" as="geometry">
            <Array as="points">
              <mxPoint x="425" y="330" />
              <mxPoint x="300" y="330" />
              <mxPoint x="300" y="406" />
            </Array>
          </mxGeometry>
        </mxCell>
        <mxCell id="75FHtrthLpoXdXTBvVlr-8" value="&lt;span style=&quot;text-align: left&quot;&gt;Algorithm 1&lt;/span&gt;" style="rounded=0;whiteSpace=wrap;html=1;" vertex="1" parent="1">
          <mxGeometry x="375" y="269" width="100" height="40" as="geometry" />
        </mxCell>
        <mxCell id="75FHtrthLpoXdXTBvVlr-55" style="edgeStyle=orthogonalEdgeStyle;rounded=0;orthogonalLoop=1;jettySize=auto;html=1;exitX=1;exitY=0.5;exitDx=0;exitDy=0;" edge="1" parent="1">
          <mxGeometry relative="1" as="geometry">
            <mxPoint x="475" y="359.5" as="sourcePoint" />
            <mxPoint x="625" y="359.5" as="targetPoint" />
            <Array as="points">
              <mxPoint x="570" y="360" />
              <mxPoint x="570" y="360" />
            </Array>
          </mxGeometry>
        </mxCell>
        <mxCell id="75FHtrthLpoXdXTBvVlr-58" style="edgeStyle=orthogonalEdgeStyle;rounded=0;orthogonalLoop=1;jettySize=auto;html=1;exitX=0.5;exitY=1;exitDx=0;exitDy=0;entryX=0.875;entryY=0.5;entryDx=0;entryDy=0;entryPerimeter=0;fillColor=#0050ef;strokeColor=#001DBC;" edge="1" parent="1" source="75FHtrthLpoXdXTBvVlr-9" target="75FHtrthLpoXdXTBvVlr-29">
          <mxGeometry relative="1" as="geometry" />
        </mxCell>
        <mxCell id="75FHtrthLpoXdXTBvVlr-9" value="&lt;span style=&quot;text-align: left&quot;&gt;Algorithm 2&lt;/span&gt;" style="rounded=0;whiteSpace=wrap;html=1;" vertex="1" parent="1">
          <mxGeometry x="375" y="340" width="100" height="37" as="geometry" />
        </mxCell>
        <mxCell id="75FHtrthLpoXdXTBvVlr-24" style="edgeStyle=orthogonalEdgeStyle;rounded=0;orthogonalLoop=1;jettySize=auto;html=1;exitX=1;exitY=0.5;exitDx=0;exitDy=0;" edge="1" parent="1">
          <mxGeometry relative="1" as="geometry">
            <mxPoint x="475" y="439" as="sourcePoint" />
            <mxPoint x="625" y="359" as="targetPoint" />
            <Array as="points">
              <mxPoint x="550" y="439" />
              <mxPoint x="550" y="359" />
            </Array>
          </mxGeometry>
        </mxCell>
        <mxCell id="75FHtrthLpoXdXTBvVlr-54" value="放置" style="edgeLabel;html=1;align=center;verticalAlign=middle;resizable=0;points=[];" vertex="1" connectable="0" parent="75FHtrthLpoXdXTBvVlr-24">
          <mxGeometry x="0.5464" y="-2" relative="1" as="geometry">
            <mxPoint x="19" y="-2" as="offset" />
          </mxGeometry>
        </mxCell>
        <mxCell id="75FHtrthLpoXdXTBvVlr-61" style="edgeStyle=orthogonalEdgeStyle;rounded=0;orthogonalLoop=1;jettySize=auto;html=1;exitX=0.5;exitY=1;exitDx=0;exitDy=0;entryX=0.875;entryY=0.5;entryDx=0;entryDy=0;entryPerimeter=0;fillColor=#0050ef;strokeColor=#001DBC;" edge="1" parent="1" source="75FHtrthLpoXdXTBvVlr-10" target="75FHtrthLpoXdXTBvVlr-29">
          <mxGeometry relative="1" as="geometry">
            <Array as="points">
              <mxPoint x="425" y="480" />
              <mxPoint x="300" y="480" />
              <mxPoint x="300" y="406" />
            </Array>
          </mxGeometry>
        </mxCell>
        <mxCell id="75FHtrthLpoXdXTBvVlr-62" value="获取" style="edgeLabel;html=1;align=center;verticalAlign=middle;resizable=0;points=[];" vertex="1" connectable="0" parent="75FHtrthLpoXdXTBvVlr-61">
          <mxGeometry x="0.8237" y="-1" relative="1" as="geometry">
            <mxPoint x="18" y="1" as="offset" />
          </mxGeometry>
        </mxCell>
        <mxCell id="75FHtrthLpoXdXTBvVlr-10" value="&lt;span style=&quot;text-align: left&quot;&gt;Algorithm 3&lt;/span&gt;" style="rounded=0;whiteSpace=wrap;html=1;" vertex="1" parent="1">
          <mxGeometry x="375" y="420" width="100" height="40" as="geometry" />
        </mxCell>
        <mxCell id="75FHtrthLpoXdXTBvVlr-11" style="edgeStyle=orthogonalEdgeStyle;rounded=0;orthogonalLoop=1;jettySize=auto;html=1;entryX=0;entryY=0.5;entryDx=0;entryDy=0;dashed=1;" edge="1" parent="1" source="75FHtrthLpoXdXTBvVlr-7" target="75FHtrthLpoXdXTBvVlr-8">
          <mxGeometry relative="1" as="geometry">
            <Array as="points">
              <mxPoint x="425" y="250" />
              <mxPoint x="340" y="250" />
              <mxPoint x="340" y="289" />
            </Array>
          </mxGeometry>
        </mxCell>
        <mxCell id="75FHtrthLpoXdXTBvVlr-25" style="edgeStyle=orthogonalEdgeStyle;rounded=0;orthogonalLoop=1;jettySize=auto;html=1;" edge="1" parent="1" source="75FHtrthLpoXdXTBvVlr-15" target="75FHtrthLpoXdXTBvVlr-2">
          <mxGeometry relative="1" as="geometry" />
        </mxCell>
        <mxCell id="75FHtrthLpoXdXTBvVlr-53" value="App启动时加载" style="edgeLabel;html=1;align=center;verticalAlign=middle;resizable=0;points=[];" vertex="1" connectable="0" parent="75FHtrthLpoXdXTBvVlr-25">
          <mxGeometry x="0.2851" relative="1" as="geometry">
            <mxPoint y="17" as="offset" />
          </mxGeometry>
        </mxCell>
        <mxCell id="75FHtrthLpoXdXTBvVlr-15" value="放置算法的文件夹" style="sketch=0;pointerEvents=1;shadow=0;dashed=0;html=1;strokeColor=none;fillColor=#505050;labelPosition=center;verticalLabelPosition=bottom;verticalAlign=top;outlineConnect=0;align=center;shape=mxgraph.office.concepts.folder_open;" vertex="1" parent="1">
          <mxGeometry x="625" y="309" width="100" height="83" as="geometry" />
        </mxCell>
        <mxCell id="75FHtrthLpoXdXTBvVlr-16" style="edgeStyle=orthogonalEdgeStyle;rounded=0;orthogonalLoop=1;jettySize=auto;html=1;exitX=0.5;exitY=1;exitDx=0;exitDy=0;entryX=0;entryY=0.5;entryDx=0;entryDy=0;dashed=1;" edge="1" parent="1" source="75FHtrthLpoXdXTBvVlr-7" target="75FHtrthLpoXdXTBvVlr-9">
          <mxGeometry relative="1" as="geometry">
            <Array as="points">
              <mxPoint x="425" y="250" />
              <mxPoint x="340" y="250" />
              <mxPoint x="340" y="359" />
            </Array>
          </mxGeometry>
        </mxCell>
        <mxCell id="75FHtrthLpoXdXTBvVlr-29" value="" style="ellipse;shape=cloud;whiteSpace=wrap;html=1;" vertex="1" parent="1">
          <mxGeometry x="110" y="366" width="120" height="80" as="geometry" />
        </mxCell>
        <mxCell id="75FHtrthLpoXdXTBvVlr-31" value="数据库" style="strokeWidth=2;html=1;shape=mxgraph.flowchart.database;whiteSpace=wrap;" vertex="1" parent="1">
          <mxGeometry x="147.5" y="386" width="52.5" height="40" as="geometry" />
        </mxCell>
        <mxCell id="75FHtrthLpoXdXTBvVlr-32" style="edgeStyle=orthogonalEdgeStyle;rounded=0;orthogonalLoop=1;jettySize=auto;html=1;entryX=0.16;entryY=0.55;entryDx=0;entryDy=0;entryPerimeter=0;fillColor=#d5e8d4;strokeColor=#82b366;" edge="1" parent="1" source="75FHtrthLpoXdXTBvVlr-26" target="75FHtrthLpoXdXTBvVlr-29">
          <mxGeometry relative="1" as="geometry">
            <Array as="points">
              <mxPoint x="170" y="250" />
              <mxPoint x="90" y="250" />
              <mxPoint x="90" y="410" />
            </Array>
          </mxGeometry>
        </mxCell>
        <mxCell id="75FHtrthLpoXdXTBvVlr-42" style="edgeStyle=orthogonalEdgeStyle;rounded=0;orthogonalLoop=1;jettySize=auto;html=1;exitX=0;exitY=0;exitDx=70;exitDy=52;exitPerimeter=0;entryX=0;entryY=0.5;entryDx=0;entryDy=0;fillColor=#f8cecc;strokeColor=#b85450;" edge="1" parent="1">
          <mxGeometry relative="1" as="geometry">
            <mxPoint x="203" y="318" as="sourcePoint" />
            <mxPoint x="363" y="150" as="targetPoint" />
            <Array as="points">
              <mxPoint x="270" y="318" />
              <mxPoint x="270" y="150" />
            </Array>
          </mxGeometry>
        </mxCell>
        <mxCell id="75FHtrthLpoXdXTBvVlr-44" value="传入文档地址" style="edgeLabel;html=1;align=center;verticalAlign=middle;resizable=0;points=[];" vertex="1" connectable="0" parent="75FHtrthLpoXdXTBvVlr-42">
          <mxGeometry x="-0.0707" y="3" relative="1" as="geometry">
            <mxPoint x="3" y="-48" as="offset" />
          </mxGeometry>
        </mxCell>
        <mxCell id="75FHtrthLpoXdXTBvVlr-33" value="统一格式的文档" style="shape=note;whiteSpace=wrap;html=1;backgroundOutline=1;darkOpacity=0.05;" vertex="1" parent="1">
          <mxGeometry x="135" y="266" width="70" height="74" as="geometry" />
        </mxCell>
        <mxCell id="75FHtrthLpoXdXTBvVlr-36" value="输出遥测结果" style="edgeStyle=orthogonalEdgeStyle;rounded=0;orthogonalLoop=1;jettySize=auto;html=1;entryX=0.5;entryY=0;entryDx=0;entryDy=0;entryPerimeter=0;fillColor=#d5e8d4;strokeColor=#82b366;" edge="1" parent="1" source="75FHtrthLpoXdXTBvVlr-26" target="75FHtrthLpoXdXTBvVlr-33">
          <mxGeometry x="-0.3659" relative="1" as="geometry">
            <Array as="points">
              <mxPoint x="170" y="200" />
              <mxPoint x="170" y="200" />
            </Array>
            <mxPoint as="offset" />
          </mxGeometry>
        </mxCell>
        <mxCell id="75FHtrthLpoXdXTBvVlr-47" style="edgeStyle=orthogonalEdgeStyle;rounded=0;orthogonalLoop=1;jettySize=auto;html=1;exitX=0.5;exitY=1;exitDx=0;exitDy=0;entryX=0;entryY=0.5;entryDx=0;entryDy=0;dashed=1;" edge="1" parent="1" source="75FHtrthLpoXdXTBvVlr-7" target="75FHtrthLpoXdXTBvVlr-10">
          <mxGeometry relative="1" as="geometry">
            <Array as="points">
              <mxPoint x="425" y="250" />
              <mxPoint x="340" y="250" />
              <mxPoint x="340" y="440" />
            </Array>
          </mxGeometry>
        </mxCell>
        <mxCell id="75FHtrthLpoXdXTBvVlr-52" value="继承" style="edgeLabel;html=1;align=center;verticalAlign=middle;resizable=0;points=[];" vertex="1" connectable="0" parent="75FHtrthLpoXdXTBvVlr-47">
          <mxGeometry x="-0.8863" y="-2" relative="1" as="geometry">
            <mxPoint as="offset" />
          </mxGeometry>
        </mxCell>
      </root>
    </mxGraphModel>
  </diagram>
</mxfile>
